<svg width="190" height="46" viewBox="0 0 190 46" fill="none" xmlns="http://www.w3.org/2000/svg">
<g clip-path="url(#clip0_28_187)">
<path d="M46.0606 0H0V46H46.0606V0Z" fill="black"/>
<path d="M33.947 20.1101H28.5738C28.4758 19.4158 28.2754 18.7991 27.9727 18.2601C27.6701 17.7129 27.2816 17.2473 26.8072 16.8634C26.333 16.4795 25.785 16.1855 25.1634 15.9813C24.55 15.7771 23.8835 15.675 23.1638 15.675C21.8634 15.675 20.7307 15.9976 19.7657 16.6429C18.8007 17.28 18.0523 18.2111 17.5207 19.4362C16.9891 20.6532 16.7234 22.1316 16.7234 23.8711C16.7234 25.66 16.9891 27.1628 17.5207 28.3797C18.0605 29.5968 18.8129 30.5156 19.778 31.1363C20.7429 31.7571 21.8593 32.0674 23.127 32.0674C23.8386 32.0674 24.4969 31.9735 25.102 31.7856C25.7154 31.5978 26.2593 31.3241 26.7337 30.9647C27.2079 30.5973 27.6006 30.1521 27.9113 29.6294C28.2303 29.1067 28.4512 28.5104 28.5738 27.8407L33.947 27.8653C33.808 29.0168 33.4605 30.1277 32.9043 31.1976C32.3564 32.2594 31.6161 33.2109 30.6838 34.0521C29.7597 34.8853 28.6556 35.5469 27.3716 36.0368C26.0958 36.5188 24.6523 36.7598 23.0412 36.7598C20.8003 36.7598 18.7966 36.2534 17.03 35.2406C15.2717 34.2278 13.8814 32.7616 12.8591 30.8422C11.845 28.9229 11.3379 26.5991 11.3379 23.8711C11.3379 21.1351 11.8531 18.8073 12.8836 16.8879C13.9141 14.9685 15.3126 13.5065 17.0791 12.5019C18.8456 11.4891 20.833 10.9827 23.0412 10.9827C24.4969 10.9827 25.8463 11.1869 27.0895 11.5953C28.3406 12.0037 29.449 12.5999 30.4139 13.384C31.3789 14.1599 32.1641 15.1115 32.7694 16.2386C33.3827 17.3657 33.7752 18.6562 33.947 20.1101Z" fill="white"/>
<path d="M94.0406 0H47.98V46H94.0406V0Z" fill="black"/>
<path d="M64.2985 11.3257L70.371 30.3889H70.6042L76.6888 11.3257H82.5773L73.9163 36.4167H67.071L58.3979 11.3257H64.2985Z" fill="white"/>
<path d="M142.02 0H95.9595V46H142.02V0Z" fill="black"/>
<path d="M110.618 36.4167V11.3257H115.93V32.0428H126.701V36.4167H110.618Z" fill="white"/>
<path d="M190 0H143.939V46H190V0Z" fill="black"/>
<path d="M160.05 36.4167H154.357L163.03 11.3257H169.876L178.537 36.4167H172.845L166.551 17.0594H166.355L160.05 36.4167ZM159.694 26.5543H173.139V30.6952H159.694V26.5543Z" fill="white"/>
</g>
<defs>
<clipPath id="clip0_28_187">
<rect width="190" height="46" fill="white"/>
</clipPath>
</defs>
</svg>
