<svg width="18" height="17" viewBox="0 0 18 17" fill="none" xmlns="http://www.w3.org/2000/svg">
<mask id="mask0_12_727" style="mask-type:alpha" maskUnits="userSpaceOnUse" x="0" y="0" width="18" height="17">
<rect x="0.5" width="17" height="17" fill="#D9D9D9"/>
</mask>
<g mask="url(#mask0_12_727)">
<path d="M3.33366 14.1667C2.94408 14.1667 2.61057 14.028 2.33314 13.7506C2.05571 13.4731 1.91699 13.1396 1.91699 12.75V4.25004C1.91699 3.86046 2.05571 3.52695 2.33314 3.24952C2.61057 2.97209 2.94408 2.83337 3.33366 2.83337H14.667C15.0566 2.83337 15.3901 2.97209 15.6675 3.24952C15.9449 3.52695 16.0837 3.86046 16.0837 4.25004V12.75C16.0837 13.1396 15.9449 13.4731 15.6675 13.7506C15.3901 14.028 15.0566 14.1667 14.667 14.1667H3.33366ZM9.00033 9.20837L3.33366 5.66671V12.75H14.667V5.66671L9.00033 9.20837ZM9.00033 7.79171L14.667 4.25004H3.33366L9.00033 7.79171ZM3.33366 5.66671V4.25004V12.75V5.66671Z" fill="#1C1B1F"/>
</g>
</svg>
